<?xml version="1.0" encoding="UTF-8" standalone="no"?>
<svg
   xmlns:dc="http://purl.org/dc/elements/1.1/"
   xmlns:cc="http://creativecommons.org/ns#"
   xmlns:rdf="http://www.w3.org/1999/02/22-rdf-syntax-ns#"
   xmlns:svg="http://www.w3.org/2000/svg"
   xmlns="http://www.w3.org/2000/svg"
   viewBox="0 0 1020 830"
   height="830"
   width="1020"
   version="1.1"
   id="svg3336">
  <metadata
     id="metadata3342">
    <rdf:RDF>
      <cc:Work
         rdf:about="">
        <dc:format>image/svg+xml</dc:format>
        <dc:type
           rdf:resource="http://purl.org/dc/dcmitype/StillImage" />
        <dc:title></dc:title>
      </cc:Work>
    </rdf:RDF>
  </metadata>
  <defs
     id="defs3340" />
  <path
     id="path3346"
     d="m 6.4398753,826.93829 0,-4.375 84.2412597,0 c 91.273085,0 85.758745,-0.40845 85.758745,6.35224 0,2.34017 -2.04139,2.39776 -85.000005,2.39776 l -84.9999997,0 0,-4.375 z m 186.7944147,0.9375 c -0.41427,-1.89063 -0.95405,-4.0995 -1.19951,-4.90861 -0.24546,-0.8091 0.43587,-2.20325 1.51409,-3.09809 2.92146,-2.42459 52.06208,-2.17391 57.26601,0.29214 3.1696,1.50202 28.7949,1.82967 165.56817,2.11698 126.24574,0.26522 162.03257,0.67739 162.79337,1.875 0.53635,0.84429 0.9838,2.8007 0.99432,4.34758 l 0.0191,2.8125 -193.10119,0 -193.10119,0 -0.75321,-3.4375 z m 398.3129,-0.54197 c -1.68057,-4.82091 -0.42738,-5.97342 6.52565,-6.00139 3.74483,-0.0151 5.56364,-0.88419 8.54161,-4.08164 5.93734,-6.37491 6.33828,-8.56504 5.37454,-29.35841 -1.05498,-22.76167 -0.85282,-23.27491 8.68345,-22.04691 8.80669,1.13405 11.50219,2.30366 18.16469,7.88177 3.1753,2.6585 8.013,5.45279 10.7505,6.20951 7.6292,2.10895 8.0993,2.75054 8.8602,12.09154 0.4435,5.44501 1.9327,11.34233 4.0113,15.8852 3.1151,6.8083 3.722,7.37694 10.5183,9.85499 3.9668,1.44639 7.2124,3.11692 7.2124,3.7123 0,0.59539 8.0625,1.08251 17.9167,1.08251 9.8542,0 18.3321,0.41543 18.8398,0.92315 0.5078,0.50774 3.7213,0.97579 7.1413,1.0401 6.3723,0.11988 10.9334,2.7761 9.3014,5.4168 -0.5975,0.9668 -21.3884,1.36995 -70.6506,1.36995 l -69.80399,0 -1.38725,-3.97947 z m 162.39264,0.31084 c 0,-4.42159 -2.0988,-10.30093 -4.1407,-11.5993 -0.8163,-0.51908 -15.4138,-0.95241 -32.4387,-0.96293 -17.025,-0.01 -31.9312,-0.52111 -33.125,-1.13464 -1.1938,-0.61352 -3.7491,-1.74091 -5.6785,-2.50531 -1.9294,-0.7644 -3.1619,-1.94993 -2.7388,-2.6345 0.4466,-0.72264 -0.8345,-1.24469 -3.0545,-1.24469 -4.3887,0 -4.7729,-1.5587 -2.0125,-8.16515 1.4922,-3.57133 2.4672,-4.33485 5.5357,-4.33485 2.0484,0 4.5682,-0.84375 5.5995,-1.875 3.3111,-3.3111 44.089,-2.46642 152.0535,3.14961 63.7363,3.31539 108.7942,6.11108 111.875,6.94145 1.375,0.3706 7.7556,1.11589 14.1791,1.6562 12.481,1.04985 13.8931,1.85808 13.9268,7.97149 0.016,2.85578 0.6886,3.60264 3.8073,4.22639 2.0835,0.4167 4.8364,2.09014 6.1174,3.71875 1.2811,1.62861 3.4165,2.96111 4.7454,2.96111 1.9735,0 2.3152,0.6869 1.8657,3.75 l -0.5504,3.75 -117.9831,0 -117.9832,0 0,-3.66862 z m 240.96,-15.08137 c -1.1644,-1.86435 -2.9151,-2.5 -6.8856,-2.5 -4.0702,0 -5.3244,-0.47602 -5.3244,-2.02079 0,-1.38652 0.7634,-1.82117 2.432,-1.38482 1.9344,0.50586 2.8934,-0.48623 4.6875,-4.84953 1.2405,-3.01702 2.6774,-5.4876 3.193,-5.49017 0.5157,-0.002 0.9375,-1.41094 0.9375,-3.12969 0,-1.83778 0.7173,-3.125 1.7413,-3.125 0.9577,0 2.065,-0.84375 2.4608,-1.875 0.3957,-1.03125 1.7268,-1.875 2.95797,-1.875 2.3955,0 6.0563,-4.66337 5.5684,-7.09324 -0.1621,-0.80753 0.2826,-1.82511 0.9884,-2.26127 0.7057,-0.43616 1.2831,-1.88098 1.2831,-3.21069 0,-5.02791 4.1461,-12.20133 7.4362,-12.86576 1.7538,-0.35418 4.1732,-1.02479 5.3763,-1.49024 2.0438,-0.79067 2.1875,1.01033 2.1875,27.41246 l 0,28.25874 -13.7394,0 c -12.38557,0 -13.89317,-0.24632 -15.30057,-2.5 z M 3.9398753,782.14315 l 0,-26.67015 74.0624997,-0.8287 c 94.164765,-1.05362 228.788395,-1.06316 251.637325,-0.0177 l 17.57483,0.80406 2.75199,10.12887 c 4.04176,14.87597 5.22336,22.43702 5.22336,33.42442 l 0,9.82939 -175.625,0 -175.6250047,-5e-5 0,-26.67014 z M 379.5212,804.52655 c -1.88473,-4.51081 -7.19856,-22.37551 -8.61342,-28.95775 l -0.83175,-3.86948 17.24443,-0.85406 c 20.61875,-1.02116 39.7063,-3.17907 74.11942,-8.37942 19.63133,-2.96659 31.62521,-4.03044 51.27791,-4.54827 26.0065,-0.68527 34.78945,-0.0444 59.15928,4.31666 l 12.3122,2.20331 6.98404,10.62538 c 6.96965,10.60347 10.17778,19.90403 10.24052,29.68787 l 0.0261,4.0625 -110.06379,0 -110.06377,0 -1.79111,-4.28674 z m 351.29363,-24.04312 c -10.8886,-1.32199 -12.0452,-1.78552 -13.2779,-5.3215 -1.1785,-3.38078 -5.5172,-6.34864 -9.2809,-6.34864 -1.5611,0 -1.8162,-7.83 -1.8162,-55.74848 l 0,-55.74846 4.4737,2.63954 c 3.0852,1.82029 8.4198,3.06412 17.1875,4.00752 6.9926,0.7524 12.8543,1.49504 13.026,1.6503 1.2757,1.1535 1.5912,50.25443 0.4666,72.61417 -1.9041,37.8597 -2.5209,43.131 -5.0193,42.89812 -1.1052,-0.103 -3.697,-0.39217 -5.7595,-0.64257 z m 38.6547,-19.81847 0.095,-12.85217 -7.6881,-8.01201 c -10.7927,-11.24739 -12.4669,-17.99244 -8.0157,-32.294 2.3981,-7.70523 2.3977,-7.95774 -0.047,-26.53379 -1.3574,-10.31499 -3.8236,-26.09104 -5.4804,-35.05789 -1.6569,-8.96686 -2.7276,-16.76427 -2.3795,-17.32759 0.3482,-0.56332 11.1467,-1.03658 23.9968,-1.05168 12.85,-0.0151 41.9262,-0.84863 64.6137,-1.85227 22.6875,-1.00362 49.7975,-1.83502 60.2444,-1.84752 20.1851,-0.0241 50.5852,2.10689 51.6296,3.61926 0.3443,0.49861 4.8447,1.63283 10.001,2.52048 10.9272,1.88111 29.4015,7.55727 39.2058,12.04585 6.54657,2.99713 6.91897,3.42411 8.20107,9.40221 0.8309,3.87424 1.3431,25.36261 1.3431,56.34676 0,48.6294 -0.069,50.06619 -2.3803,49.4618 -1.9929,-0.52114 -2.5133,0.26426 -3.19727,4.82508 -0.4493,2.99615 -1.2916,5.74092 -1.8718,6.0995 -0.5802,0.35858 -17.0008,0.66793 -36.4902,0.68745 -34.8866,0.0349 -178.6846,3.25053 -187.4058,4.19077 l -4.4703,0.48195 0.095,-12.85219 z m -106.7797,7.66039 c -4.4687,-1.63397 -11.3497,-4.30201 -15.2911,-5.92896 l -7.1662,-2.9581 -0.021,-13.4375 -0.021,-13.4375 18.0351,0 18.0351,0 0.778,6.5625 c 0.4279,3.60937 0.3277,12.1875 -0.2226,19.0625 -1.1766,14.69886 -1.3362,14.81344 -14.1256,10.13706 z M 548.24489,741.30408 c -20.85356,-2.85443 -34.9536,-10.70659 -53.18376,-29.61749 -17.27975,-17.925 -26.96467,-36.94039 -28.28166,-55.52826 l -0.67523,-9.52995 8.30291,-1.44589 c 27.0973,-4.7188 52.70113,-6.57361 82.65773,-5.988 32.42321,0.63385 45.69575,2.21464 71.65525,8.53432 26.3512,6.41505 67.8216,21.4392 71.1572,25.77931 1.879,2.44473 2.0763,17.78066 0.3105,24.13686 -1.7347,6.24448 -9.1656,14.4544 -16.4018,18.12127 -7.5475,3.82459 -35.4499,11.51873 -50.0793,13.80944 -5.9719,0.9351 -22.00316,3.91591 -35.62495,6.62401 -27.64554,5.49614 -38.70181,6.62854 -49.83689,5.10438 z m -210.55501,-5.68149 c -183.98135,-3.91624 -265.885195,-6.69444 -269.683835,-9.14776 -0.71832,-0.46393 -1.48321,-15.49804 -1.86479,-36.65312 l -0.64694,-35.86657 6.41028,-0.6461 c 13.56695,-1.36745 51.202085,-5.85995 74.362575,-8.87665 112.68766,-14.67784 202.04048,-13.14026 281.40008,4.84234 l 18.10237,4.10192 2.15962,7.09366 c 8.5251,28.00217 8.00395,50.78683 -1.59665,69.80553 l -3.6787,7.28745 -15.29451,-0.17877 c -8.41198,-0.0983 -48.76325,-0.89119 -89.6695,-1.76193 z m 676.56242,-5.13715 c -1.2017,-0.48489 -1.5625,-9.36535 -1.5625,-38.45686 0,-20.80451 0.3667,-43.82014 0.815,-51.14584 l 0.8149,-13.31945 4.8101,0 4.81,0 0,51.875 0,51.875 -4.0625,-0.0986 c -2.2344,-0.0543 -4.7656,-0.38241 -5.625,-0.72917 z M 3.9398753,676.93829 l 0,-51.875 4.93002,0 c 4.9375497,0 42.0120997,9.02545 43.6008697,10.61423 1.5755,1.57549 0.89232,63.34707 -0.86762,78.44827 l -1.71172,14.6875 -22.97578,0 -22.9757697,0 0,-51.875 z M 683.93983,644.29331 c -15.7889,-1.61236 -60.56045,-8.56423 -64.23396,-9.97388 -1.54248,-0.59192 -3.23729,-13.69564 -3.2585,-25.19364 l -0.007,-4.0625 9.0625,0.006 c 15.00936,0.01 47.64566,2.45566 72.18746,5.41035 l 23.125,2.7841 0.8643,6.83736 c 0.5723,4.52826 0.2557,9.22014 -0.9375,13.8928 -0.991,3.88049 -1.8018,8.23986 -1.8018,9.6875 0,2.44772 -0.6348,2.62169 -9.0625,2.48373 -4.9843,-0.0816 -16.6562,-0.92383 -25.9375,-1.87163 z M 414.92862,632.12559 c -3.23744,-2.2562 -11.04677,-6.87759 -17.35404,-10.26974 -13.98331,-7.52045 -22.74699,-15.12385 -26.9173,-23.35356 l -3.14431,-6.205 7.27596,0.79501 c 4.00177,0.43726 25.27595,2.18976 47.27595,3.89444 41.34892,3.20395 63.64227,5.5776 81.75534,8.70481 15.74937,2.71913 22.61966,8.56658 22.61966,19.2521 0,4.8101 -0.21809,5.11964 -3.60718,5.11964 -3.93601,0 -80.74881,4.53334 -93.89282,5.54138 -7.63251,0.58534 -8.48179,0.37446 -14.01126,-3.47908 z m 566.88001,-15.56475 -24.0062,-9.62255 -0.6536,-6.25 c -0.3595,-3.4375 -0.8313,-25.24483 -1.0483,-48.46073 l -0.3946,-42.21072 27.5545,0.33573 27.55437,0.33572 -0.4396,3.125 c -0.2418,1.71875 -1.45,5.22122 -2.685,7.78329 -3.1211,6.47537 -4.567,32.37669 -2.4264,43.46671 1.5031,7.78683 2.5321,61.326 1.176,61.18505 -0.3438,-0.0358 -11.42777,-4.39511 -24.63117,-9.6875 z m -779.74375,3.40852 c -42.64545,-2.37199 -83.66666,-6.25228 -125.625005,-11.88315 -23.3278,-3.13061 -66.26605,-10.00883 -70.3124997,-11.26326 -2.01333,-0.62414 -2.1875,-3.39418 -2.1875,-34.79021 l 0,-34.11209 13.4374997,-2.11971 c 28.4573,-4.48901 52.29915,-5.89549 99.687505,-5.88075 65.58806,0.0204 140.2449,4.55499 220.82347,13.41266 l 7.07347,0.77755 0.90606,14.50103 c 1.14244,18.28405 -0.7793,51.23962 -3.88105,66.55558 l -0.65388,3.22873 -25.25903,1.46541 c -27.53628,1.59753 -86.23163,1.65324 -114.00904,0.10825 z m 679.37495,-17.47231 c -25.0937,-0.45479 -46.8112,-1.23326 -48.261,-1.72995 -2.5372,-0.86924 -2.6608,-1.87134 -3.2988,-26.74095 -0.3646,-14.21082 -0.5321,-25.98417 -0.3722,-26.16301 0.587,-0.65659 102.9851,-0.90259 103.644,-0.24899 0.3748,0.37173 0.8461,7.68423 1.0472,16.25 0.3957,16.84549 -2.9657,40.18065 -5.7193,39.70445 -0.7782,-0.13457 -21.9461,-0.61677 -47.0399,-1.07155 z m -129.375,-3.23127 c -132.59176,-3.79024 -203.83663,-7.17717 -208.24171,-9.89965 -0.62328,-0.38521 -1.13324,-9.85635 -1.13324,-21.04698 l 0,-20.3466 69.5808,-0.82962 c 87.69725,-1.04565 168.70415,-1.05447 184.32305,-0.0201 l 12.0288,0.79664 0.866,12.92756 c 0.7184,10.72484 0.404,15.22049 -1.8452,26.3844 -1.4911,7.40125 -2.7938,13.47443 -2.8948,13.49595 -0.101,0.0215 -23.8087,-0.63622 -52.6837,-1.46163 z m 268.43747,-1.74144 c -2.8041,-1.12712 -2.8121,-1.21344 -2.6879,-28.98328 0.1326,-29.63437 0.6206,-33.85094 3.9927,-34.50036 1.9662,-0.37866 2.1327,2.13318 2.1327,32.18094 0,17.9254 -0.1406,32.556 -0.3125,32.51241 -0.1719,-0.0436 -1.5781,-0.58795 -3.125,-1.20971 z M 413.98164,583.06237 c -3.75827,-1.01003 -14.16452,-4.32017 -23.125,-7.35585 -14.69637,-4.97895 -16.28031,-5.80093 -16.17477,-8.39384 0.16905,-4.15395 3.13056,-24.0386 3.65885,-24.5669 1.1682,-1.16819 51.1792,-10.33484 60.05232,-11.00714 17.98424,-1.36264 31.69581,2.28274 70.01211,18.61346 l 23.84028,10.16093 -0.99778,6.31183 c -1.26182,7.98224 -4.36265,12.17554 -10.5289,14.23842 -4.20311,1.40612 -7.01168,1.26415 -20.85182,-1.05409 -13.01685,-2.18033 -17.09356,-2.42934 -21.89826,-1.3376 -9.33949,2.12214 -43.77193,6.40001 -50.78448,6.30944 -3.50312,-0.0453 -9.44426,-0.90865 -13.20255,-1.91867 z M 585.81488,535.4564 c -2.0625,-0.26526 -12.1875,-1.85016 -22.5,-3.522 -10.3125,-1.67184 -26.73944,-3.91935 -36.50431,-4.99447 -16.19965,-1.7836 -50.37893,-7.2271 -55.68319,-8.86828 -1.48094,-0.45821 -2.18993,-1.96182 -2.19499,-4.6551 -0.004,-2.18804 -0.37541,-8.7053 -0.82509,-14.48277 l -0.81758,-10.50452 21.76259,0.87579 c 43.58775,1.75409 75.80051,6.82658 97.78792,15.39849 12.09041,4.7135 13.53235,7.92094 10.63359,23.65312 -1.60113,8.68963 -1.19939,8.44499 -11.65894,7.09974 z m 147.50985,-9.91115 c -0.4677,-4.73382 -1.9034,-15.63821 -3.1904,-24.23196 -3.4119,-22.78193 -4.1553,-36.72832 -2.5655,-48.125 1.7696,-12.68576 6.3001,-28.17623 8.486,-29.01502 0.9226,-0.35408 11.3711,0.31164 23.2188,1.4794 14.8476,1.46342 41.739,2.44003 86.5412,3.14292 35.75,0.56086 67.6057,1.41072 70.7903,1.88857 l 5.7902,0.86883 1.9415,10.19265 c 3.5288,18.52605 3.6545,21.00677 2.7376,54.01766 l -0.9098,32.75774 -5.1749,0.77762 c -2.8462,0.4277 -15.0186,1.13078 -27.0499,1.56239 -21.3533,0.76605 -39.351,-0.36216 -55,-3.44775 -5.7034,-1.12457 -11.6678,-0.78333 -35,2.00243 -15.4687,1.8469 -37.4939,3.66816 -48.9448,4.04723 l -20.8199,0.68926 -0.8504,-8.60697 z m -58.7599,1.86395 c -11.7062,-1.1277 -28.5402,-6.71735 -56.67134,-18.81741 -40.88163,-17.58445 -63.28847,-24.73988 -77.70361,-24.81394 -40.45073,-0.20785 -72.31206,-15.00825 -84.22916,-39.12657 -4.49649,-9.1002 -8.27084,-24.16833 -8.27084,-33.01924 l 0,-4.46132 24.0625,0.80919 c 13.23437,0.44507 65.40625,1.12042 115.9375,1.50079 59.79415,0.45009 94.44335,1.18109 99.23025,2.09349 10.1487,1.93434 18.0839,7.47719 21.9879,15.35876 4.0241,8.12416 4.6496,22.00588 2.5912,57.50534 -1.4082,24.2862 -1.7488,26.6001 -4.5533,30.9298 -6.1214,9.45039 -17.058,13.51724 -32.3811,12.04111 z M 372.68988,516.16674 c -25.09375,-1.27924 -93.83509,-4.86335 -152.75854,-7.96468 -58.92344,-3.10132 -107.90414,-5.63877 -108.846,-5.63877 -1.21372,0 -1.54916,-1.1832 -1.15171,-4.0625 0.74253,-5.37933 3.60149,-8.4375 7.88787,-8.4375 1.95882,0 4.00546,-0.91365 4.6578,-2.07931 1.05964,-1.89348 4.33287,-2.00613 36.6246,-1.26035 73.68794,1.70182 260.97098,12.28008 281.00306,15.87183 3.73563,0.6698 6.97001,1.21783 7.1875,1.21783 0.67701,0 0.4337,6.99615 -0.38583,11.09375 l -0.78125,3.90625 -13.90625,-0.16033 c -7.64844,-0.0881 -34.4375,-1.20697 -59.53125,-2.48622 z m -360.625005,-8.58482 -7.4999997,-0.64363 -0.32543,-56.01926 c -0.2604,-44.82624 -0.0106,-55.8156 1.25,-55 0.86649,0.5606 15.1670297,1.01926 31.7789997,1.01926 16.61196,0 30.67446,0.46787 31.25,1.03972 2.78771,2.76985 1.6885,71.37423 -1.65653,103.38789 l -0.72386,6.92761 -23.28659,-0.034 c -12.80762,-0.0187 -26.66159,-0.3236 -30.78659,-0.67759 z M 1020.1898,506.77614 c -1.0313,-0.32438 -6.2384,-2.64456 -11.5715,-5.15598 l -9.69637,-4.5662 -10.3035,2.07527 c -5.667,1.1414 -15.4212,2.44686 -21.676,2.90102 l -11.3725,0.82577 -0.6904,-31.70887 c -0.4081,-18.74036 -0.2122,-32.60352 0.4789,-33.89636 1.0618,-1.98615 3.8404,-2.18908 30.1879,-2.20456 15.96017,-0.01 30.28407,-0.35625 31.83097,-0.7708 2.7667,-0.74144 2.8125,-1.07649 2.8125,-20.5687 0,-17.09976 0.2569,-19.71639 1.875,-19.09548 1.6281,0.62478 1.875,8.10777 1.875,56.83578 0,30.86393 -0.4219,56.07185 -0.9375,56.01757 -0.5156,-0.0543 -1.7813,-0.36407 -2.8125,-0.68846 z M 388.31488,489.20333 c -3.4375,-0.22514 -32.125,-1.82543 -63.75,-3.55619 -105.27835,-5.76163 -208.2497,-13.02115 -213.55093,-15.05542 -2.0825,-0.79914 -2.96028,-6.70004 -4.10346,-27.58577 l -0.831,-15.18233 11.74269,-0.82843 c 17.42539,-1.22935 303.23184,-1.47942 304.44881,-0.26639 2.2028,2.19567 2.02885,33.55325 -0.26986,48.64699 l -2.23685,14.6875 -12.5997,-0.22531 c -6.92984,-0.12392 -15.4122,-0.40951 -18.8497,-0.63465 z m -18.75,-68.7328 c -3.4375,-0.21569 -23.40625,-1.2638 -44.375,-2.32915 -20.96875,-1.06536 -83.35218,-4.44375 -138.62983,-7.50755 -55.27765,-3.0638 -102.086395,-5.57054 -104.019445,-5.57054 -3.27577,0 -3.57122,-0.42666 -4.34744,-6.27805 -0.45805,-3.45294 -1.32117,-6.57989 -1.91805,-6.94877 -7.53555,-4.65723 32.317855,-4.12645 150.164765,1.99991 71.62056,3.72325 158.00416,9.24988 167.8125,10.73628 l 4.6875,0.71038 0,8.01512 0,8.01513 -11.5625,-0.22531 c -6.35938,-0.12388 -14.375,-0.40178 -17.8125,-0.61745 z m 374.37495,-3.56467 c -1.0312,-0.20208 -7.7907,-1.31706 -15.021,-2.47774 l -13.146,-2.11032 1.7095,-15.18976 c 3.3611,-29.86411 2.3379,-87.67109 -1.7899,-101.12725 -0.609,-1.98542 0.5203,-2.18732 12.2257,-2.18556 17.4406,0.002 21.3101,1.8316 22.4747,10.62306 2.773,20.93168 -0.3025,113.58405 -3.7503,112.98 -0.4552,-0.0797 -1.6714,-0.31034 -2.7027,-0.51242 z m 180.625,-4.40978 c -12.375,-0.47891 -45,-0.95255 -72.5,-1.05253 -43.0719,-0.15657 -86.3034,-1.64203 -87.6739,-3.01255 -0.2298,-0.22982 3.2385,-13.26505 7.7075,-28.96717 8.5937,-30.19476 13.0914,-49.94444 13.0914,-57.48452 l 0,-4.56624 33.4375,0.77648 c 27.6664,0.64247 35.3792,0.43124 44.6875,-1.22386 24.2796,-4.31712 29.8114,-4.38298 48.125,-0.5729 14.4632,3.00901 36.2061,4.89954 56.25,4.89089 23.9025,-0.01 34.06287,-1.58536 38.82057,-6.01791 1.5955,-1.48637 3.435,-2.70248 4.088,-2.70248 1.6145,0 -0.2428,66.62076 -1.8857,67.63856 -1.1861,0.7348 -0.8611,10.00887 0.926,26.42394 l 0.7825,7.1875 -31.67817,-0.22323 c -17.423,-0.12277 -41.8032,-0.61506 -54.1782,-1.09398 z M 377.68988,395.0567 c -32.8204,-1.13152 -52.34715,-2.95543 -62.31075,-5.82017 l -6.68576,-1.9223 0.82527,-5.50332 c 0.4539,-3.02681 2.80123,-11.19015 5.21628,-18.14073 2.76913,-7.96968 4.88313,-17.08722 5.7234,-24.68466 0.73281,-6.62598 1.46913,-12.21603 1.63627,-12.42235 0.16713,-0.20632 59.29131,-0.86473 131.38708,-1.46312 118.94065,-0.98721 243.14226,-0.26935 244.82666,1.41505 0.3652,0.36522 1.005,7.64109 1.4218,16.16862 0.6859,14.03641 -1.3336,37.08678 -4.0691,46.44207 -0.5701,1.94985 -2.5656,2.18851 -18.3679,2.19681 -9.7505,0.005 -48.3845,0.81445 -85.85325,1.7985 -90.95854,2.38885 -177.79505,3.1752 -213.75,1.9356 z m -129.375,-14.59518 c -4.125,-0.20849 -26.625,-1.24325 -50,-2.29949 -57.52356,-2.5993 -130.600235,-6.54013 -162.500005,-8.76319 -14.4375,-1.00612 -27.5156297,-1.83073 -29.0624997,-1.83244 l -2.8125,-0.003 0,-31.875 0,-31.875 11.0810097,0 c 6.09455,0 48.98518,-0.89482 95.312505,-1.9885 89.72294,-2.11814 236.50769,-3.01033 238.08129,-1.44711 1.51284,1.50283 -2.10489,7.06212 -6.27139,9.6371 -2.10562,1.30132 -10.03645,4.58055 -17.62406,7.28717 -17.07138,6.08966 -20.66185,7.92716 -26.08361,13.34894 -3.24968,3.24967 -4.64255,6.05619 -5.72762,11.54064 -1.43706,7.2637 -4.75528,20.27917 -8.30079,32.55926 l -1.89473,6.5625 -13.3488,-0.23635 c -7.34184,-0.13 -16.7238,-0.40694 -20.8488,-0.61542 z m 769.55882,-11.31207 -4.1911,-0.51374 0.8393,-5.84871 c 0.4616,-3.21678 2.2815,-11.19246 4.0442,-17.72371 1.7628,-6.53125 3.6143,-16.09375 4.1145,-21.25 0.6634,-6.83768 0.9568,-1.84761 1.0844,18.4375 0.096,15.29687 -0.2471,27.72247 -0.7627,27.61245 -0.5156,-0.11 -2.8235,-0.43123 -5.1286,-0.71379 z m 5.0598,-58.46116 c 0.025,-2.0625 0.3056,-2.75492 0.6225,-1.53871 0.317,1.21621 0.2961,2.90371 -0.046,3.75 -0.3425,0.84628 -0.6018,-0.14879 -0.5763,-2.21129 z M 622.06488,299.94933 C 455.58939,290.3649 311.8081,280.52199 301.88029,278.03026 l -2.94041,-0.738 -0.0113,-27.67698 c -0.006,-15.22234 -0.35099,-30.50694 -0.7667,-33.96577 l -0.75583,-6.28878 51.70419,-4.05148 c 74.61247,-5.84655 98.10805,-6.86036 142.3292,-6.14142 49.61864,0.8067 85.73808,5.12857 122.10109,14.61004 32.2496,8.4089 64.2635,25.09063 71.7376,37.38081 1.1635,1.91323 6.4008,8.39351 11.6384,14.40064 5.2376,6.00711 9.5229,11.91116 9.5229,13.12011 0,2.8165 -3.6913,6.0924 -13.366,11.86175 -4.2575,2.53892 -9.1431,6.28255 -10.8568,8.31917 -3.7608,4.46952 -1.9909,4.43748 -60.15219,1.08898 z m 324.37495,-1.27629 c -21.473,-4.11265 -113.5527,-6.5221 -136.875,-3.58161 -22.9246,2.89036 -30.2349,2.91682 -34.7509,0.1258 -2.2578,-1.39539 -9.425,-4.04777 -15.9271,-5.89415 -18.5646,-5.27179 -24.7009,-9.2282 -29.8712,-19.25979 -2.4267,-4.70838 -5.7188,-17.3971 -6.7028,-25.83481 l -0.6075,-5.20983 57.6798,0.54776 c 31.7238,0.30128 79.1869,0.88319 105.4735,1.29315 l 47.7938,0.74539 -2.4813,3.48464 c -1.3647,1.91654 -2.5041,3.96029 -2.5321,4.54166 -0.028,0.58138 -1.7154,3.00454 -3.75,5.38483 -2.0345,2.38027 -3.689,5.75527 -3.6766,7.5 0.031,4.36862 7.6779,10.46681 18.8011,14.99345 9.1228,3.71255 13.6763,6.83502 13.6763,9.37822 0,2.23363 8.2298,10.67554 10.4074,10.67554 1.0698,0 2.2927,0.5625 2.7176,1.25 0.9347,1.51239 -11.205,1.4245 -19.375,-0.14025 z m 67.83897,-4.98573 c -7.5961,-0.88405 -9.6719,-1.65931 -13.0264,-4.8651 -2.34407,-2.24019 -6.86737,-4.62793 -10.96397,-5.78767 -3.8355,-1.08581 -10.4899,-4.23381 -14.7876,-6.99556 -9.4679,-6.08412 -15.4924,-8.34817 -22.4075,-8.42083 -4.4766,-0.047 -5.7694,-0.7196 -9.0625,-4.71466 -4.5801,-5.55648 -4.8614,-7.8402 -0.966,-7.8402 1.5813,0 3.4094,-0.51699 4.0625,-1.14886 0.6532,-0.63188 4.8438,-1.36988 9.3125,-1.64 12.1455,-0.73417 30,-4.77017 30,-6.78148 0,-1.28007 2.6399,-1.67966 11.097,-1.67966 8.33897,0 11.48357,-0.466 12.65297,-1.875 0.994,-1.1977 3.7585,-1.875 7.653,-1.875 l 6.097,0 0,27.5 c 0,15.125 -0.1406,27.42702 -0.3125,27.33782 -0.1719,-0.0891 -4.3787,-0.6354 -9.3485,-1.2138 z m -1001.901425,-1.95428 -8.4374997,-0.53396 0,-26.81789 0,-26.81789 60.3124997,0.0163 c 116.738855,0.0314 185.073355,4.4395 207.500005,13.38542 4.44311,1.77234 4.6875,2.16247 4.6875,7.48269 0,12.7747 -5.8939,17.52449 -26.0291,20.97643 -11.97935,2.05371 -23.12151,5.75992 -26.52513,8.82302 -1.46366,1.31725 -8.09981,1.87899 -27.5,2.32781 -39.25933,0.90823 -174.505855,1.75948 -184.008275,1.15812 z M 859.56483,233.09019 c -49.7387,-2.1049 -102.8873,-5.24779 -118.4375,-7.00369 -11.1049,-1.25395 -12.1914,-1.61034 -12.2318,-4.0122 -0.071,-4.23489 -2.8366,-8.10677 -9.3078,-13.03152 -3.3277,-2.53247 -7.0869,-6.01074 -8.3537,-7.72949 -2.481,-3.36601 -5.8127,-16.8981 -4.487,-18.22388 1.1286,-1.12853 221.767,-1.35884 222.8986,-0.23267 2.2258,2.2153 2.1139,26.23142 -0.1825,39.15735 l -2.3184,13.0492 -14.4149,-0.16661 c -7.9282,-0.0917 -31.8525,-0.90457 -53.165,-1.80649 z m 135.4814,-3.54446 c -7.7721,-2.70342 -11.9499,-6.65709 -20.4666,-19.36879 -4.539,-6.77463 -11.1138,-14.73008 -14.6108,-17.67876 -15.1993,-12.81629 -14.5776,-24.03793 3.7935,-68.4669 17.2822,-41.7955 19.5745,-62.190848 7.681,-68.341182 -2.0373,-1.05353 -9.0125,-2.983363 -15.5006,-4.288517 -11.325,-2.278196 -20.037,-5.418728 -21.4718,-7.740288 -0.385,-0.622916 18.824,-1.098002 44.3952,-1.098002 l 45.07367,0 0,94.293469 0,94.29349 -12.1875,-0.0164 c -6.7031,-0.009 -14.22087,-0.72367 -16.70607,-1.58814 z m -984.548815,-2.22706 -6.5674597,-1.19764 0.0265,-91.01372 0.0265,-91.013701 2.79097,-0.748092 c 1.53503,-0.411448 19.6328497,-0.75577 40.2173797,-0.765157 30.2423,-0.01379 37.01696,0.282857 35.29333,1.545431 -2.94529,2.157443 -4.38004,17.29238 -2.0517,21.642929 1.4768,2.759412 1.30809,3.771647 -1.50231,9.014026 -5.40921,10.090047 -5.762,35.434934 -0.57688,41.443644 2.93045,3.39592 3.32177,9.8662 1.37898,22.80105 -1.33787,8.90741 -1.78582,20.35169 -1.5498,39.59474 0.22517,18.35872 -0.22781,30.78586 -1.40805,38.62861 l -1.74003,11.5625 -28.88497,-0.1485 c -15.88674,-0.0817 -31.84034,-0.68743 -35.45244,-1.34612 z m 662.192415,-4.21763 c -5.8437,-2.4311 -12.1718,-5.00791 -14.0625,-5.72625 l -3.4375,-1.30606 0,-12.8193 0,-12.8193 9.5636,-0.80841 c 12.0074,-1.015 22.1406,-1.03538 24.7092,-0.0496 1.66,0.63701 1.9745,3.29421 1.9602,16.5625 -0.01,8.69206 -0.3563,17.06939 -0.7708,18.61626 -1.0731,4.00408 -5.3065,3.61525 -17.9622,-1.64975 z m -487.61721,1.42833 c -0.29367,-0.29367 -13.20769,-1.12974 -28.69784,-1.85795 -15.49015,-0.72823 -31.23426,-1.90369 -34.9869,-2.61217 -10.46846,-1.97635 -17.39504,-6.8896 -21.552055,-15.28752 -7.63365,-15.4214 -12.48812,-59.23646 -7.80492,-70.44494 1.19952,-2.87085 1.44936,-5.14359 0.71702,-6.52235 -2.62824,-4.9481 -8.80805,-33.995106 -8.80805,-41.400509 0,-7.640318 0.57324,-10.80162 4.45573,-24.572172 l 1.79217,-6.356532 108.957775,-0.830968 c 137.65609,-1.049837 216.20033,-1.055562 242.51654,-0.01768 l 20.62149,0.81329 1.46025,12.62421 c 2.90269,25.094319 1.5878,45.522171 -3.82981,59.499211 -5.35409,13.81317 -13.40585,22.6029 -31.25042,34.11457 -13.19203,8.51031 -15.94696,11.81132 -15.10378,18.09769 l 0.62807,4.68262 -18.56151,-1.47934 c -23.20135,-1.84913 -67.9509,-2.0331 -75.42921,-0.31011 -7.93081,1.82726 -17.93677,7.1723 -34.12738,18.23035 -7.7027,5.26088 -17.66116,11.30313 -22.12991,13.42723 l -8.125,3.86199 -27.5,0 -27.5,0 -6.6652,3.4375 c -6.68479,3.4476 -8.0851,3.89554 -9.07706,2.90358 z M 563.69237,188.1491 c -1.93981,-1.9398 -33.74778,-4.55806 -68.50249,-5.63876 -21.65625,-0.67341 -40.88409,-1.55783 -42.72853,-1.96538 -7.64061,-1.6883 -5.46257,-6.77876 10.04534,-23.47773 12.15674,-13.09042 19.2013,-25.23524 21.41821,-36.92499 2.92304,-15.41307 1.0127,-34.988439 -5.40223,-55.357128 -2.58157,-8.196985 -2.73227,-9.496447 -0.99898,-8.614199 7.39983,3.766558 34.2199,8.918492 68.62123,13.181622 12.55652,1.556047 23.23442,3.233548 23.72865,3.727782 1.15667,1.15667 1.20288,59.987193 0.0689,87.607973 -0.47987,11.6875 -0.90175,22.79687 -0.9375,24.6875 -0.0469,2.47636 -0.70577,3.4375 -2.35667,3.4375 -1.26043,0 -2.59055,-0.29889 -2.95585,-0.66419 z m 233.99746,-17.6535 c -2.4062,-0.22967 -8.3879,-0.74403 -13.2926,-1.14302 l -8.9176,-0.72544 -0.7607,-4.75689 c -0.7719,-4.82746 -4.866,-10.87835 -19.4911,-28.80696 -8.7329,-10.70545 -14.5272,-21.63302 -16.1508,-30.45912 l -1.1192,-6.084108 5.1785,0.7591 c 24.5083,3.592578 62.3316,3.450058 130.8035,-0.492885 11.3438,-0.653226 28.0017,-1.195628 37.0176,-1.205336 l 16.3926,-0.01765 0.7949,5.799459 c 1.4522,10.59474 0.8226,35.73366 -1.3009,51.94781 l -2.0959,16.00273 -61.3416,-0.20005 c -33.7379,-0.11003 -63.3104,-0.38796 -65.7167,-0.61764 z m -199.2404,-8.14615 c -0.37028,-2.97614 -2.61901,-19.47366 -4.99719,-36.66116 -6.23965,-45.095004 -6.42715,-47.592622 -3.65667,-48.709952 4.1653,-1.679857 39.59866,-2.251247 52.89426,-0.852958 7.2188,0.75919 27.8285,3.779995 45.7994,6.7129 l 32.6744,5.332552 0.7522,6.25873 c 1.3326,11.086178 0.6947,29.663498 -1.481,43.133728 l -2.12,13.125 -6.875,0.29626 c -24.1796,1.04194 -49.0149,3.17491 -62.5,5.36781 -13.5407,2.20194 -42.95089,8.77342 -48.08911,10.74514 -1.25324,0.48091 -1.91305,-0.82371 -2.40129,-4.74805 z m 180.5274,-75.426637 c -3.0733,-2.283874 -11.2098,-7.152204 -18.0809,-10.818511 -7.6613,-4.087925 -14.9554,-9.121882 -18.8599,-13.016016 -6.046,-6.030026 -10.5112,-13.526574 -8.9731,-15.064694 0.3902,-0.390246 8.4816,-0.09206 17.9807,0.662624 9.4992,0.754689 39.2087,2.50573 66.0212,3.891201 54.4547,2.813813 71.4263,4.075205 94.757,7.042705 16.88,2.147009 21.235,3.903754 26.1572,10.551388 3.1222,4.21674 4.4512,13.368492 2.0599,14.184775 -0.9482,0.323678 -35.1928,1.751335 -76.0991,3.17257 -40.9062,1.421235 -75.5,2.800602 -76.875,3.065261 -1.4589,0.280816 -4.8269,-1.247989 -8.088,-3.671303 z M 599.76492,58.734868 c -6.07748,-0.538911 -11.42123,-1.351105 -11.875,-1.804875 -0.45378,-0.45377 -0.81859,-5.137536 -0.8107,-10.408368 0.0146,-9.740544 1.10225,-12.75785 8.87552,-24.621357 1.51973,-2.319388 1.89562,-5.239812 1.52305,-11.833177 l -0.49464,-8.7538004 66.60338,0 66.6033,0 0,3.445753 c 0,6.0694354 -2.2634,11.6144204 -6.783,16.6171084 -5.7299,6.342269 -6.3406,9.282099 -3.7672,18.134379 1.5164,5.216062 1.7192,7.454763 0.7061,7.792461 -0.7818,0.260604 -1.1041,0.987294 -0.7162,1.614869 0.3878,0.627574 -0.1712,2.392191 -1.2422,3.92137 -1.0711,1.529179 -1.9475,3.780166 -1.9475,5.002193 0,2.096847 -2.9716,2.212059 -52.8125,2.047576 -29.0468,-0.09586 -57.78494,-0.61522 -63.86241,-1.154131 z M 548.93988,50.03405 c -30.32294,-4.025418 -61.2608,-6.517907 -62.99884,-5.075462 -1.15097,0.955222 -3.44512,0.378707 -8.35635,-2.099931 -5.3504,-2.700278 -9.12859,-3.556491 -18.01981,-4.083649 -9.30346,-0.551598 -12.67293,-1.362978 -19.47379,-4.689362 -6.88741,-3.36872 -9.65203,-4.022355 -17.01306,-4.022355 -7.39363,0 -9.54625,-0.513691 -13.55635,-3.235015 l -4.76706,-3.235016 -29.46987,1.376853 c -16.20843,0.75727 -33.84985,1.598748 -39.20315,1.869953 -5.35331,0.271204 -10.58341,1.198646 -11.62246,2.060981 -1.48521,1.232615 -13.84914,1.395268 -57.82005,0.760648 -30.76197,-0.443979 -57.80996,-1.183054 -60.10664,-1.642389 -2.55132,-0.510265 -4.41081,-1.733951 -4.77996,-3.145585 -0.3323,-1.270736 -1.10108,-2.31043 -1.7084,-2.31043 -0.60731,0 -1.10421,-2.571429 -1.10421,-5.714286 0,-3.412698 -0.75521,-6.469493 -1.875,-7.5892854 -1.03125,-1.03125 -1.875,-3.241071 -1.875,-4.910714 l 0,-3.035715 193.04076,0 c 182.7663,0 193.07551,0.116429 193.69365,2.1875 1.42118,4.761666 1.09833,19.8551204 -0.4881,22.8193884 -0.89964,1.680996 -1.96997,6.164002 -2.37851,9.962235 l -0.7428,6.905877 -5,0.625 c -4.57391,0.57174 -5.03337,0.971192 -5.3917,4.6875 -0.21544,2.234375 -0.77794,3.997461 -1.25,3.91797 -0.47206,-0.07949 -8.45205,-1.152611 -17.7333,-2.384711 z m -337.5,-0.08751 c -14.78125,-0.538127 -40.65625,-1.925433 -57.5,-3.082903 -17.23966,-1.184678 -35.67865,-1.779492 -42.1875,-1.360909 l -11.5625,0.743585 0,-6.84151 c 0,-6.008177 0.30451,-6.841511 2.5,-6.841511 1.38889,0 2.5,-0.833334 2.5,-1.875 0,-1.608528 3.81945,-1.875 26.875,-1.875 21.68428,0 26.875,0.324849 26.875,1.681909 0,1.350726 7.19947,1.856003 36.5625,2.56605 21.03035,0.508549 36.7395,1.387096 36.97916,2.068091 0.22918,0.651172 5.07915,1.18395 10.77775,1.18395 l 10.36106,0 0.74952,4.6875 c 0.41223,2.578125 0.41852,5.953125 0.014,7.5 -0.84045,3.213647 2.51442,3.100702 -42.94397,1.445748 z m 61.25,-6.133248 c 0,-0.6875 0.5625,-1.25 1.25,-1.25 0.6875,0 1.25,-1.125 1.25,-2.5 0,-2.44152 0.83334,-2.5 35.625,-2.5 34.79166,0 35.625,-0.05848 35.625,-2.5 0,-2.429078 0.83334,-2.5 29.375,-2.5 28.54166,0 29.375,0.07092 29.375,2.5 0,1.944445 0.83334,2.5 3.75,2.5 3.33334,0 3.75,0.416666 3.75,3.75 l 0,3.75 -70,0 c -45.83334,0 -70,-0.431548 -70,-1.25 z m 584.00985,-0.507847 c -5.0133,-0.878539 -9.7664,-2.248676 -10.5625,-3.044748 -1.0503,-1.050371 -15.7799,-1.447405 -53.6974,-1.447405 l -52.25,0 0,-11.056265 c 0,-13.632967 1.6937,-16.049998 10.2845,-14.676714 16.3317,2.610722 29.6774,3.104305 85.5921,3.165581 50.7965,0.05566 62.7545,-0.258965 68.7001,-1.807602 8.9577,-2.333197 13.0228,-2.366881 16.0775,-0.133218 2.2476,1.64343 2.2887,2.29632 0.7278,11.5625 -0.9099,5.401395 -1.6373,11.587979 -1.6164,13.747965 l 0.038,3.927249 -8.3392,0.08341 c -4.5866,0.04588 -16.7768,0.351877 -27.0893,0.68 -12.2548,0.389921 -21.9075,0.04325 -27.8651,-1.000759 z m 83.4901,-18.242153 0,-11.25 25.625,0 25.625,0 0,11.25 0,11.25 -25.625,0 -25.625,0 0,-11.25 z m -919.999955,-2.5 0,-10 -6.25,0 -6.2499997,0 0,-5.6250004 0,-5.625 84.9999997,0 85.000005,0 0,5.625 0,5.6250004 -33.125,0 -33.125,0 0,3.125 c 0,2.986111 -0.33333,3.125 -7.5,3.125 -5.833345,0 -7.500005,0.416666 -7.500005,1.875 0,1.416666 -1.52778,1.875 -6.25,1.875 l -6.25,0 0,5 0,5 -31.875,0 -31.875,0 0,-10 z M 756.43983,3.8132906 c 0,-2.482363 0.8334,-2.5 118.125,-2.5 117.2917,0 118.125,0.01764 118.125,2.5 0,2.482364 -0.8333,2.5 -118.125,2.5 -117.2916,0 -118.125,-0.01764 -118.125,-2.5 z"
     style="fill:#000000" />
</svg>
